<svg version="1.1" xmlns="http://www.w3.org/2000/svg" xmlns:xlink="http://www.w3.org/1999/xlink" width="16" height="16" viewBox="0,0,256,256"><g fill="#ffffff" fill-rule="nonzero" stroke="none" stroke-width="1" stroke-linecap="butt" stroke-linejoin="miter" stroke-miterlimit="10" stroke-dasharray="" stroke-dashoffset="0" font-family="none" font-weight="none" font-size="none" text-anchor="none" style="mix-blend-mode: normal"><g transform="scale(16,16)"><path d="M0,0.5c0,-0.27614 0.22386,-0.5 0.5,-0.5h5c0.27614,0 0.5,0.22386 0.5,0.5v5.277l4.147,-4.131c0.19525,-0.19519 0.51175,-0.19519 0.707,0l3.535,3.536c0.09404,0.0938 0.14689,0.22117 0.14689,0.354c0,0.13283 -0.05285,0.2602 -0.14689,0.354l-4.128,4.11h5.239c0.27614,0 0.5,0.22386 0.5,0.5v5c0,0.27614 -0.22386,0.5 -0.5,0.5h-12.5c-0.79558,-0.00017 -1.55852,-0.31635 -2.121,-0.879c-0.55199,-0.55165 -0.8673,-1.29669 -0.879,-2.077M6,12.834l7.328,-7.3l-2.829,-2.828l-4.499,4.482zM4.5,13c0,-0.82843 -0.67157,-1.5 -1.5,-1.5c-0.82843,0 -1.5,0.67157 -1.5,1.5c0,0.82843 0.67157,1.5 1.5,1.5c0.82843,0 1.5,-0.67157 1.5,-1.5M15,15v-4h-5.742l-4.015,4zM0,0.5v12.495zM0,12.995v0.005z"></path></g></g></svg>