<svg version="1.1" xmlns="http://www.w3.org/2000/svg" xmlns:xlink="http://www.w3.org/1999/xlink" width="16" height="16" viewBox="0,0,256,256"><g fill="#ffffff" fill-rule="nonzero" stroke="none" stroke-width="1" stroke-linecap="butt" stroke-linejoin="miter" stroke-miterlimit="10" stroke-dasharray="" stroke-dashoffset="0" font-family="none" font-weight="none" font-size="none" text-anchor="none" style="mix-blend-mode: normal"><g transform="translate(-2.17969,2.34227) scale(16,16)"><path d="M15.825,0.12c0.16857,0.1439 0.2223,0.38159 0.132,0.584c-1.53,3.43 -4.743,8.17 -7.095,10.64c-0.66004,0.69001 -1.47284,1.21544 -2.373,1.534c-0.018,0.227 -0.06,0.538 -0.16,0.868c-0.201,0.659 -0.667,1.479 -1.708,1.74c-1.00811,0.24051 -2.053,0.28532 -3.078,0.132c-0.19034,-0.03139 -0.37817,-0.07651 -0.562,-0.135c-0.16958,-0.05207 -0.32772,-0.13589 -0.466,-0.247c-0.09148,-0.077 -0.16171,-0.17615 -0.204,-0.288c-0.05327,-0.14312 -0.05185,-0.30087 0.004,-0.443c0.095,-0.245 0.316,-0.38 0.461,-0.452c0.394,-0.197 0.625,-0.453 0.867,-0.826c0.095,-0.144 0.184,-0.297 0.287,-0.472l0.117,-0.198c0.151,-0.255 0.326,-0.54 0.546,-0.848c0.528,-0.739 1.201,-0.925 1.746,-0.896c0.12667,0.008 0.24267,0.024 0.348,0.048c0.062,-0.172 0.142,-0.38 0.238,-0.608c0.261,-0.619 0.658,-1.419 1.187,-2.069c2.176,-2.67 6.18,-6.206 9.117,-8.104c0.18568,-0.11984 0.428,-0.10358 0.596,0.04M4.705,11.912c-0.13249,-0.05833 -0.27444,-0.09221 -0.419,-0.1c-0.246,-0.013 -0.573,0.05 -0.879,0.479c-0.197,0.275 -0.355,0.532 -0.5,0.777l-0.105,0.177c-0.106,0.181 -0.213,0.362 -0.32,0.528c-0.20268,0.32802 -0.45968,0.61917 -0.76,0.861c0.69,0.112 1.736,0.111 2.657,-0.12c0.559,-0.139 0.843,-0.569 0.993,-1.06c0.07365,-0.24364 0.11599,-0.49567 0.126,-0.75zM6.145,11.938c0.12,-0.04 0.277,-0.1 0.458,-0.183c0.57568,-0.26791 1.09627,-0.64097 1.535,-1.1c1.9,-1.996 4.412,-5.57 6.052,-8.631c-2.59,1.927 -5.566,4.66 -7.302,6.792c-0.442,0.543 -0.795,1.243 -1.042,1.826c-0.121,0.288 -0.214,0.54 -0.275,0.72v0.001l0.575,0.575zM1.172,14.978l0.007,-0.005zM4.754,11.935l0.002,0.001h-0.002z"></path></g></g></svg>